<svg width="48" height="48" viewBox="0 0 48 48" fill="none" xmlns="http://www.w3.org/2000/svg">
<path d="M27.0802 24.8488L25.636 28.3895H37.3875L35.9432 24.8488C35.7765 24.4406 35.4489 24.1848 35.0918 24.1848H27.9313C27.5743 24.1848 27.247 24.4406 27.0802 24.8488Z" fill="#8AE5CC" stroke="#0B4D5E" stroke-width="0.4" stroke-miterlimit="10"/>
<path d="M23.9086 32.6244H39.1147L37.3997 28.4193H25.6236L23.9086 32.6244Z" fill="#04B488" stroke="#0B4D5E" stroke-width="0.4" stroke-miterlimit="10"/>
<path d="M22.9261 35.0338C22.5882 35.8629 23.0528 36.8591 23.7775 36.8591H39.2466C39.9713 36.8591 40.4359 35.8625 40.0979 35.0338L39.1273 32.6544H23.8964L22.9261 35.0338Z" fill="#0B4D5E" stroke="#0B4D5E" stroke-width="0.4" stroke-miterlimit="10"/>
<path d="M38.9922 24.1848H31.8316C31.4746 24.1848 31.147 24.4406 30.9803 24.8488L26.8262 35.0337C26.4882 35.8628 26.9528 36.8594 27.6775 36.8594H43.1466C43.8713 36.8594 44.3359 35.8628 43.998 35.0337L39.8439 24.8488C39.6772 24.4406 39.3492 24.1848 38.9922 24.1848Z" fill="#F0F4FF" stroke="#0B4D5E" stroke-width="0.4" stroke-miterlimit="10"/>
<path d="M18.2781 12.1634L16.8338 15.7041H28.5853L27.141 12.1634C26.9743 11.7551 26.6467 11.4994 26.2897 11.4994H19.1291C18.7721 11.4994 18.4448 11.7551 18.2781 12.1634Z" fill="#8AE5CC" stroke="#0B4D5E" stroke-width="0.4" stroke-miterlimit="10"/>
<path d="M15.1064 19.939H30.3125L28.5975 15.7339H16.8214L15.1064 19.939Z" fill="#04B488" stroke="#0B4D5E" stroke-width="0.4" stroke-miterlimit="10"/>
<path d="M14.1239 22.3485C13.786 23.1776 14.2506 24.1738 14.9753 24.1738H30.4444C31.1691 24.1738 31.6337 23.1772 31.2958 22.3485L30.3252 19.9691H15.0942L14.1239 22.3485Z" fill="#0B4D5E" stroke="#0B4D5E" stroke-width="0.4" stroke-miterlimit="10"/>
<path d="M30.19 11.4994H23.0295C22.6724 11.4994 22.3448 11.7551 22.1781 12.1634L18.024 22.3483C17.686 23.1774 18.1506 24.174 18.8754 24.174H34.3444C35.0692 24.174 35.5338 23.1774 35.1958 22.3483L31.0417 12.1634C30.875 11.7551 30.547 11.4994 30.19 11.4994Z" fill="#F0F4FF" stroke="#0B4D5E" stroke-width="0.4" stroke-miterlimit="10"/>
<path d="M8.93214 24.8488L7.48788 28.3895H19.2394L17.7951 24.8488C17.6284 24.4406 17.3008 24.1848 16.9437 24.1848H9.78318C9.42616 24.1848 9.09886 24.4406 8.93214 24.8488Z" fill="#8AE5CC" stroke="#0B4D5E" stroke-width="0.4" stroke-miterlimit="10"/>
<path d="M5.7605 32.6244H20.9666L19.2516 28.4193H7.47552L5.7605 32.6244Z" fill="#04B488" stroke="#0B4D5E" stroke-width="0.4" stroke-miterlimit="10"/>
<path d="M4.77801 35.0338C4.44005 35.8629 4.90467 36.8591 5.62938 36.8591H21.0985C21.8232 36.8591 22.2878 35.8625 21.9498 35.0338L20.9792 32.6544H5.74828L4.77801 35.0338Z" fill="#0B4D5E" stroke="#0B4D5E" stroke-width="0.4" stroke-miterlimit="10"/>
<path d="M20.8441 24.1848H13.6835C13.3265 24.1848 12.9989 24.4406 12.8322 24.8488L8.67806 35.0337C8.3401 35.8628 8.80472 36.8594 9.52943 36.8594H24.9985C25.7232 36.8594 26.1878 35.8628 25.8499 35.0337L21.6958 24.8488C21.5291 24.4406 21.2011 24.1848 20.8441 24.1848Z" fill="#F0F4FF" stroke="#0B4D5E" stroke-width="0.4" stroke-miterlimit="10"/>
</svg>
