<svg xmlns="http://www.w3.org/2000/svg" width="21.675" height="21.482" viewBox="0 0 21.675 21.482">
  <path id="Account" d="M19.565,21.282l-.005-.134A8.72,8.72,0,0,0,15.7,13.959a8.4,8.4,0,0,0-4.9-1.534c-.219,0-.445.008-.668.023a8.8,8.8,0,0,0-8.182,8.69l0,.136H0l.008-.147A11.455,11.455,0,0,1,2,14.99a11.651,11.651,0,0,1,4.921-3.817A6.133,6.133,0,0,1,4.517,6.559,6.352,6.352,0,0,1,6.476,1.665,6.414,6.414,0,0,1,10.775,0a6.235,6.235,0,0,1,3.783,11.184,10.781,10.781,0,0,1,5.9,5.443,10.332,10.332,0,0,1,1.013,4.516v.139ZM6.435,6.19A4.255,4.255,0,0,0,7.7,9.234a4.317,4.317,0,0,0,6.109,0A4.254,4.254,0,0,0,15.076,6.2a4.317,4.317,0,0,0-4.3-4.292h-.022A4.317,4.317,0,0,0,6.435,6.19Z" transform="translate(0.106 0.1)" stroke="#fff" stroke-width="0.2"/>
</svg>
