<svg xmlns="http://www.w3.org/2000/svg" width="21.242" height="21.246" viewBox="0 0 21.242 21.246">
  <path id="Search" d="M890.131,174.121c-.03-.043-.059-.087-.088-.131a1.812,1.812,0,0,0-.238-.314c-1.88-1.859-3.726-3.673-5.125-5.046l0,0c.1-.143.2-.287.3-.427a13.913,13.913,0,0,0,.773-1.179,8.659,8.659,0,0,0-1.4-10.325,8.857,8.857,0,0,0-4.739-2.542c-.26-.049-.524-.084-.78-.117l-.353-.048-1.187,0-.019,0-.059.013c-.037.009-.072.017-.105.021-.114.017-.228.031-.343.045-.235.029-.477.059-.715.11a8.834,8.834,0,0,0-5.43,3.5,8.688,8.688,0,0,0,.746,11.169,9.043,9.043,0,0,0,11.349,1.4c.191-.12.378-.251.56-.378l.137-.1.05.048,1.084,1.067c1.335,1.314,2.716,2.673,4.075,4.007a1.219,1.219,0,0,0,.389.272.856.856,0,0,0,.32.065.949.949,0,0,0,.826-.639l.018-.037v-.386Zm-5.7-8.272a6.816,6.816,0,0,1-5.08,3.931,7.052,7.052,0,0,1-6.829-2.2,6.9,6.9,0,0,1-1.834-4.026c-.019-.16-.025-.32-.032-.5,0-.089-.007-.182-.012-.279a7.265,7.265,0,0,1,13.6-3.355A6.681,6.681,0,0,1,884.427,165.849Z" transform="translate(-868.924 -153.986)"/>
</svg>
