<svg xmlns="http://www.w3.org/2000/svg" width="23.686" height="21.282" viewBox="0 0 23.686 21.282">
  <path id="Wishlist" d="M429.974,158.147a6.554,6.554,0,0,0-7.513-1.353,10.42,10.42,0,0,0-1.585.975c-.227.158-.461.322-.7.478l-.044-.041c-.08-.075-.181-.168-.287-.258a7.262,7.262,0,0,0-3.554-1.734,6.587,6.587,0,0,0-3.855.622,6.722,6.722,0,0,0-4.005,6.365,9.832,9.832,0,0,0,2.271,5.963,33.161,33.161,0,0,0,8.994,8.08,1,1,0,0,0,.556.18,1.356,1.356,0,0,0,.735-.27,39.783,39.783,0,0,0,6.037-4.8,17.25,17.25,0,0,0,4.6-6.559A6.969,6.969,0,0,0,429.974,158.147Zm-10.538,1.743c.322.408.567.581.819.581h0c.252,0,.5-.175.823-.585a5.174,5.174,0,0,1,6.694-1.406,5.5,5.5,0,0,1,2.412,6.627A12.661,12.661,0,0,1,427.5,169.5a34.86,34.86,0,0,1-6.978,5.976.546.546,0,0,1-.476.034c-3.175-2.185-6.425-4.7-8.689-8.246a6.771,6.771,0,0,1-1.232-5.081,5.4,5.4,0,0,1,5.631-4.357h.006A5.055,5.055,0,0,1,419.436,159.889Z" transform="translate(-408.43 -156.142)"/>
</svg>
